<?xml version="1.0" encoding="UTF-8"?>
<!DOCTYPE svg PUBLIC "-//W3C//DTD SVG 1.1//EN" "http://www.w3.org/Graphics/SVG/1.1/DTD/svg11.dtd">
<svg version="1.1" xmlns="http://www.w3.org/2000/svg" xmlns:xlink="http://www.w3.org/1999/xlink" x="0" y="0" width="80" height="80" viewBox="0, 0, 80, 80">
  <g id="Layer_1">
    <g>
      <path d="M30.027,58.426 C26.194,57.762 22.248,57.078 19.709,56.16 C15.5,54.539 17.878,52.132 19.709,51.57 C20.93,51.238 22.229,50.994 23.503,50.867 C24.455,50.769 25.149,49.929 25.061,48.982 C24.973,48.025 24.133,47.336 23.176,47.419 C19.192,47.8 13.918,49.372 11.74,51.96 C11.623,52.092 11.545,52.243 11.476,52.39 C11.061,52.888 10.836,53.552 10.91,54.245 C11.149,56.472 12.912,58.376 16.301,60.075 C19.309,61.584 24.104,62.414 29.182,63.288 C31.721,63.727 34.319,64.182 36.601,64.719 C39.97,66.272 36.425,68.635 33.82,69.612 C25.201,72.068 10.607,71.15 5.704,66.97 C4.254,65.73 2.071,65.896 0.831,67.356 C-0.414,68.806 -0.238,70.994 1.212,72.234 C1.612,72.576 2.062,72.898 2.525,73.201 C7.964,77.6 15.406,79.998 23.707,79.998 C23.805,79.998 23.902,79.998 24,79.998 C31.881,79.949 39.413,77.674 43.651,74.07 C44.901,73.006 48.7,69.773 47.665,66.004 C46.367,61.248 38.798,59.944 30.027,58.426 z" fill="#000000"/>
      <path d="M77.461,4.943 L73.965,1.447 C72.031,-0.482 68.897,-0.482 66.973,1.447 L42.5,25.916 L52.988,36.404 L77.461,11.935 C79.384,10.005 79.384,6.875 77.461,4.943 z" fill="#000000"/>
      <path d="M35.508,32.905 L32.893,46.014 L45.996,43.397 z" fill="#000000"/>
    </g>
  </g>
</svg>
