<?xml version="1.0" encoding="UTF-8"?>
<!DOCTYPE svg PUBLIC "-//W3C//DTD SVG 1.1//EN" "http://www.w3.org/Graphics/SVG/1.1/DTD/svg11.dtd">
<svg version="1.1" xmlns="http://www.w3.org/2000/svg" xmlns:xlink="http://www.w3.org/1999/xlink" x="0" y="0" width="91" height="83" viewBox="0, 0, 91, 83">
  <g id="Layer_1">
    <path d="M89.35,26.85 C90.35,25.85 90.35,24.25 89.35,23.35 L66.85,0.75 C65.85,-0.25 64.25,-0.25 63.35,0.75 L0.75,63.25 C-0.25,64.25 -0.25,65.85 0.75,66.75 L15.75,81.75 C16.25,82.25 16.85,82.45 17.55,82.45 L25.05,82.45 L32.55,82.45 L87.55,82.45 C88.95,82.45 90.05,81.35 90.05,79.95 C90.05,78.55 88.95,77.55 87.55,77.55 L38.55,77.55 L89.35,26.85 z M65.05,6.05 L84.05,25.05 L42.55,66.55 L23.55,47.55 L65.05,6.05 z M25.05,77.55 L18.55,77.55 L6.05,65.05 L20.05,51.05 L39.05,70.05 L31.55,77.55 L25.05,77.55 z" fill="#000000"/>
  </g>
</svg>
