<?xml version="1.0" encoding="UTF-8"?>
<!DOCTYPE svg PUBLIC "-//W3C//DTD SVG 1.1//EN" "http://www.w3.org/Graphics/SVG/1.1/DTD/svg11.dtd">
<svg version="1.1" xmlns="http://www.w3.org/2000/svg" xmlns:xlink="http://www.w3.org/1999/xlink" x="0" y="0" width="76" height="90" viewBox="0, 0, 76, 90">
  <g id="Layer_1">
    <path d="M40,52.58 L40,0.384 L36,0.384 L36,52.612 C31.484,53.569 28.084,57.585 28.084,62.381 C28.084,67.898 32.572,72.381 38.084,72.381 C43.6,72.381 48.084,67.898 48.084,62.381 C48.084,57.532 44.6,53.477 40,52.58 z" fill="#000000"/>
    <path d="M36,76.384 L40,76.384 L40,88.384 L36,88.384 L36,76.384 z" fill="#000000"/>
    <path d="M52,60.384 L76,60.384 L76,64.384 L52,64.384 L52,60.384 L52,60.384 z" fill="#000000"/>
    <path d="M0,60.384 L24,60.384 L24,64.384 L0,64.384 L0,60.384 L0,60.384 z" fill="#000000"/>
    <path d="M27.127,48.248 L13.248,34.367 L16.077,31.539 L29.956,45.42 L27.127,48.248 z" fill="#000000"/>
    <path d="M53.607,74.02 L61.476,81.895 L58.648,84.719 L50.781,76.843 L53.607,74.02 z" fill="#000000"/>
    <path d="M53.671,52.264 L50.843,49.436 L67.813,32.466 L70.641,35.294 L53.671,52.264 z" fill="#000000"/>
    <path d="M27.511,74.057 L30.339,76.884 L17.611,89.611 L14.783,86.784 L27.511,74.057 z" fill="#000000"/>
  </g>
</svg>
