<?xml version="1.0" encoding="UTF-8"?>
<!DOCTYPE svg PUBLIC "-//W3C//DTD SVG 1.1//EN" "http://www.w3.org/Graphics/SVG/1.1/DTD/svg11.dtd">
<svg version="1.1" xmlns="http://www.w3.org/2000/svg" xmlns:xlink="http://www.w3.org/1999/xlink" x="0" y="0" width="32" height="32" viewBox="0, 0, 32, 32">
  <g id="Layer_1">
    <g>
      <path d="M18.821,14.251 L21.649,17.079 L15.328,23.4 L12.5,20.572 L18.821,14.251 z" fill="#FFFFFF"/>
      <path d="M13.843,11.7 C12.738,11.7 11.843,10.805 11.843,9.7 C11.843,8.595 12.738,7.7 13.843,7.7 C14.948,7.7 15.843,8.595 15.843,9.7 C15.843,10.805 14.948,11.7 13.843,11.7 z" fill="#FFFFFF"/>
      <path d="M13.9,24 C12.795,24 11.9,23.105 11.9,22 C11.9,20.895 12.795,20 13.9,20 C15.005,20 15.9,20.895 15.9,22 C15.9,23.105 15.005,24 13.9,24 z" fill="#FFFFFF"/>
      <path d="M20,17.9 C18.895,17.9 18,17.005 18,15.9 C18,14.795 18.895,13.9 20,13.9 C21.104,13.9 22,14.795 22,15.9 C22,17.005 21.104,17.9 20,17.9 z" fill="#FFFFFF"/>
      <path d="M12.428,11.113 L15.256,8.285 L21.405,14.434 L18.577,17.262 L12.428,11.113 z" fill="#FFFFFF"/>
    </g>
    <path d="M32,16 C32,7.165 24.836,0 16,0 C7.164,0 -0,7.164 -0,16 C-0,24.836 7.164,32 16,32 C24.836,32 32,24.835 32,16 z M12.535,23.456 C11.789,22.71 11.789,21.503 12.535,20.757 L17.336,16.011 L12.535,11.265 C11.789,10.519 11.789,9.312 12.535,8.566 C13.289,7.824 14.508,7.82 15.262,8.566 L21.418,14.664 C22.164,15.406 22.164,16.617 21.418,17.362 L15.262,23.456 C14.508,24.202 13.289,24.202 12.535,23.456 z" fill="#000000"/>
  </g>
</svg>
