<?xml version="1.0" encoding="UTF-8"?>
<!DOCTYPE svg PUBLIC "-//W3C//DTD SVG 1.1//EN" "http://www.w3.org/Graphics/SVG/1.1/DTD/svg11.dtd">
<svg version="1.1" xmlns="http://www.w3.org/2000/svg" xmlns:xlink="http://www.w3.org/1999/xlink" x="0" y="0" width="85" height="66" viewBox="0, 0, 85, 66">
  <g id="Layer_1">
    <path d="M51.5,0 C27.7,0 18.7,11.5 18.5,14.9 C18.3,18.4 27.8,24.8 21.7,31.4 C14,39.7 7.2,32.6 3.1,33.6 C-1,34.6 -3.1,47.3 10.6,56.5 C24.1,65.5 39.2,68.5 57.1,63.4 C71.1,59.4 83.9,43.5 84.9,29.8 C86.1,13.8 73.6,0 51.5,0 z M27.6,57 C25.1,58.5 21.9,57.7 20.4,55.3 C18.9,52.8 19.7,49.6 22.1,48.1 C24.6,46.6 27.8,47.4 29.3,49.8 C30.8,52.3 30,55.5 27.6,57 z M31.7,18.9 C31.7,15.3 35.2,12.4 39.6,12.4 C43.9,12.4 47.5,15.3 47.5,18.9 C47.5,22.5 44,25.4 39.6,25.4 C35.3,25.4 31.7,22.5 31.7,18.9 z M49.3,58.6 C46.9,62.2 42.4,63.4 39.3,61.2 C36.1,59.1 35.5,54.5 37.8,50.9 C40.2,47.3 44.7,46.1 47.8,48.3 C51,50.5 51.7,55.1 49.3,58.6 z M66.3,55.1 C63.8,56.6 60.6,55.8 59.1,53.4 C57.6,50.9 58.4,47.7 60.8,46.2 C63.3,44.7 66.5,45.5 68,47.9 C69.6,50.4 68.8,53.6 66.3,55.1 z M75.3,41.1 C72.2,41.6 69.2,39.1 68.6,35.4 C67.9,31.7 69.9,28.3 73,27.7 C76.1,27.2 79.1,29.7 79.7,33.4 C80.3,37.1 78.4,40.5 75.3,41.1 z" fill="#000000"/>
  </g>
</svg>
