<?xml version="1.0" encoding="UTF-8"?>
<!DOCTYPE svg PUBLIC "-//W3C//DTD SVG 1.1//EN" "http://www.w3.org/Graphics/SVG/1.1/DTD/svg11.dtd">
<svg version="1.1" xmlns="http://www.w3.org/2000/svg" xmlns:xlink="http://www.w3.org/1999/xlink" x="0" y="0" width="32" height="32" viewBox="0, 0, 32, 32">
  <g id="Layer_1">
    <g>
      <path d="M18.821,14.251 L21.649,17.079 L15.328,23.4 L12.5,20.572 L18.821,14.251 z" fill="#FFFFFF"/>
      <path d="M13.843,11.7 C12.738,11.7 11.843,10.805 11.843,9.7 C11.843,8.595 12.738,7.7 13.843,7.7 C14.948,7.7 15.843,8.595 15.843,9.7 C15.843,10.805 14.948,11.7 13.843,11.7 z" fill="#FFFFFF"/>
      <path d="M13.9,24 C12.795,24 11.9,23.105 11.9,22 C11.9,20.895 12.795,20 13.9,20 C15.005,20 15.9,20.895 15.9,22 C15.9,23.105 15.005,24 13.9,24 z" fill="#FFFFFF"/>
      <path d="M20,17.9 C18.895,17.9 18,17.005 18,15.9 C18,14.795 18.895,13.9 20,13.9 C21.104,13.9 22,14.795 22,15.9 C22,17.005 21.104,17.9 20,17.9 z" fill="#FFFFFF"/>
      <path d="M12.428,11.113 L15.256,8.285 L21.405,14.434 L18.577,17.262 L12.428,11.113 z" fill="#FFFFFF"/>
    </g>
    <path d="M0,16 C0,7.165 7.164,0 16,0 C24.836,0 32,7.164 32,16 C32,24.836 24.836,32 16,32 C7.164,32 0,24.835 0,16 z M19.465,23.456 C20.211,22.71 20.211,21.503 19.465,20.757 L14.664,16.011 L19.465,11.265 C20.211,10.519 20.211,9.312 19.465,8.566 C18.711,7.824 17.492,7.82 16.738,8.566 L10.582,14.664 C9.836,15.406 9.836,16.617 10.582,17.362 L16.738,23.456 C17.492,24.202 18.711,24.202 19.465,23.456 z" fill="#000000"/>
  </g>
</svg>
