<svg xmlns="http://www.w3.org/2000/svg" xmlns:xlink="http://www.w3.org/1999/xlink" version="1.1" id="Layer_1" x="0px" y="0px" width="89.231px" height="100px" viewBox="0 0 89.231 100" enable-background="new 0 0 89.231 100" xml:space="preserve">
<g>
	<path d="M74.58,64.026c0.603-2.09,1-4.267,1.15-6.511h13.502c-0.18,3.858-0.86,7.586-1.962,11.13L74.58,64.026z"/>
	<path d="M74.9,88.192l-8.684-10.35c2.899-2.792,5.273-6.127,6.926-9.857l12.688,4.618C83.332,78.563,79.577,83.87,74.9,88.192z"/>
	<path d="M46.749,86.499c6.051-0.409,11.626-2.559,16.245-5.943l8.681,10.346c-6.985,5.336-15.582,8.661-24.926,9.099V86.499z"/>
	<path d="M44.644,10.768V0l30.323,17.506L44.644,35.013V24.245c-17.186,0-31.166,13.98-31.166,31.165   c0,16.477,12.854,29.999,29.061,31.087v13.502C18.896,98.896,0.001,79.32,0.001,55.41C0.001,30.794,20.027,10.768,44.644,10.768z"/>
</g>
</svg>