<?xml version="1.0" encoding="utf-8"?>
<!-- Generator: Adobe Illustrator 15.1.0, SVG Export Plug-In . SVG Version: 6.00 Build 0)  -->
<!DOCTYPE svg PUBLIC "-//W3C//DTD SVG 1.1//EN" "http://www.w3.org/Graphics/SVG/1.1/DTD/svg11.dtd">
<svg version="1.1" id="Layer_1" xmlns="http://www.w3.org/2000/svg" xmlns:xlink="http://www.w3.org/1999/xlink" x="0px" y="0px"
	 width="100px" height="78.746px" viewBox="0 0 100 78.746" enable-background="new 0 0 100 78.746" xml:space="preserve">
<path fill="#010101" d="M83.379,71.289c0,2.072-0.413,2.486-2.484,2.486H17.103c-2.071,0-2.485-0.414-2.485-2.486V37.618
	c5.061-1.935,11.036-3.471,17.27-3.471c16.277,0-8.894,27.201,10.069,27.201c9.457,0,14.033-6.627,14.084-6.627
	c2.641-3.779,2.33-10.771,0-5.799c0,0.051-4.591,9.113-14.084,9.113c-11.112,0,11.811-28.249-10.069-28.249
	c-6.277,0-12.236,1.516-17.27,3.433V7.498c0-2.071,0.414-2.485,2.485-2.485h63.792c1.526,0,2.305,0.091,2.453,1.216l4.488-4.487
	C87.096,0.646,85.645,0,84.188,0L12.96,0.042c-2.072,0-3.314,1.243-3.314,3.314v31.999C3.746,38.186,0,41.038,0,41.038v4.36
	c0,0,3.766-2.822,9.646-5.641v35.674c0,2.071,1.242,3.314,3.314,3.314h71.248c2.071,0,4.142-2.071,4.142-4.145V32.143l-4.971,4.97
	V71.289z"/>
<path fill="#010101" d="M61.316,43.271c2.061,2.06,9.504-1.105,9.504-1.105L100,12.993l-7.957-7.955L62.863,34.21
	C62.863,34.21,59.402,41.359,61.316,43.271z"/>
</svg>
